<svg width="102" height="77" viewBox="0 0 102 77" fill="none" xmlns="http://www.w3.org/2000/svg">
<rect width="26.9486" height="26.9486" fill="#D9D9D9"/>
<circle cx="78.8914" cy="13.4743" r="13.4743" fill="#D9D9D9"/>
<path d="M45.9771 0L59.4277 27H32.5265L45.9771 0Z" fill="#D9D9D9"/>
<path d="M0.9975 73V71.9325L5.5825 66.56L6.685 65.4225L5.1275 65.4575H1.05V64.25H8.2425V65.3175L3.6575 70.69L2.5725 71.8275L4.27 71.7925H8.3825V73H0.9975ZM18.6581 64.25L14.8781 68.03L14.5456 68.3625L11.6756 71.2325V69.4825L16.8906 64.25H18.6581ZM12.3756 60.225V73H10.9756V60.225H12.3756ZM15.0006 67.3125L18.8681 73H17.1706L13.8281 68.1L15.0006 67.3125ZM30.3723 73H28.8848L27.6598 69.7975H22.4273L21.2023 73H19.7323L24.2298 61.45H25.8923L30.3723 73ZM22.9348 68.485H27.1523L25.0348 62.7975L22.9348 68.485ZM32.4576 76.675V64.25H33.6826L33.8051 66.385L33.6126 66.14C33.7642 65.7317 33.9917 65.3758 34.2951 65.0725C34.5984 64.7575 34.9659 64.5125 35.3976 64.3375C35.8292 64.1625 36.2959 64.075 36.7976 64.075C37.5092 64.075 38.1626 64.2558 38.7576 64.6175C39.3642 64.9792 39.8484 65.4983 40.2101 66.175C40.5717 66.8517 40.7526 67.6683 40.7526 68.625C40.7526 69.57 40.5659 70.3867 40.1926 71.075C39.8309 71.7517 39.3467 72.2708 38.7401 72.6325C38.1334 72.9942 37.4684 73.175 36.7451 73.175C36.0217 73.175 35.3859 73 34.8376 72.65C34.3009 72.2883 33.9159 71.8333 33.6826 71.285L33.8576 71.0225V76.675H32.4576ZM36.6051 71.95C37.4684 71.95 38.1392 71.6467 38.6176 71.04C39.1076 70.4333 39.3526 69.6283 39.3526 68.625C39.3526 67.6217 39.1134 66.8167 38.6351 66.21C38.1684 65.6033 37.5092 65.3 36.6576 65.3C36.0976 65.3 35.6076 65.44 35.1876 65.72C34.7676 65.9883 34.4409 66.3733 34.2076 66.875C33.9742 67.365 33.8576 67.9483 33.8576 68.625C33.8576 69.29 33.9684 69.8733 34.1901 70.375C34.4234 70.8767 34.7442 71.2675 35.1526 71.5475C35.5726 71.8158 36.0567 71.95 36.6051 71.95ZM43.4293 76.675V64.25H44.6543L44.7768 66.385L44.5843 66.14C44.7359 65.7317 44.9634 65.3758 45.2668 65.0725C45.5701 64.7575 45.9376 64.5125 46.3693 64.3375C46.8009 64.1625 47.2676 64.075 47.7693 64.075C48.4809 64.075 49.1343 64.2558 49.7293 64.6175C50.3359 64.9792 50.8201 65.4983 51.1818 66.175C51.5434 66.8517 51.7243 67.6683 51.7243 68.625C51.7243 69.57 51.5376 70.3867 51.1643 71.075C50.8026 71.7517 50.3184 72.2708 49.7118 72.6325C49.1051 72.9942 48.4401 73.175 47.7168 73.175C46.9934 73.175 46.3576 73 45.8093 72.65C45.2726 72.2883 44.8876 71.8333 44.6543 71.285L44.8293 71.0225V76.675H43.4293ZM47.5768 71.95C48.4401 71.95 49.1109 71.6467 49.5893 71.04C50.0793 70.4333 50.3243 69.6283 50.3243 68.625C50.3243 67.6217 50.0851 66.8167 49.6068 66.21C49.1401 65.6033 48.4809 65.3 47.6293 65.3C47.0693 65.3 46.5793 65.44 46.1593 65.72C45.7393 65.9883 45.4126 66.3733 45.1793 66.875C44.9459 67.365 44.8293 67.9483 44.8293 68.625C44.8293 69.29 44.9401 69.8733 45.1618 70.375C45.3951 70.8767 45.7159 71.2675 46.1243 71.5475C46.5443 71.8158 47.0284 71.95 47.5768 71.95ZM54.7591 70.9C55.0975 70.9 55.3716 71.005 55.5816 71.215C55.7916 71.425 55.8966 71.6992 55.8966 72.0375C55.8966 72.3758 55.7916 72.65 55.5816 72.86C55.3716 73.07 55.0975 73.175 54.7591 73.175C54.4208 73.175 54.1466 73.07 53.9366 72.86C53.7266 72.65 53.6216 72.3758 53.6216 72.0375C53.6216 71.6992 53.7266 71.425 53.9366 71.215C54.1466 71.005 54.4208 70.9 54.7591 70.9ZM61.8576 73.175C61.0059 73.175 60.2184 72.9942 59.4951 72.6325C58.7834 72.2708 58.2351 71.7575 57.8501 71.0925L59.0401 70.235C59.2967 70.7717 59.6701 71.1917 60.1601 71.495C60.6617 71.7983 61.2626 71.95 61.9626 71.95C62.5809 71.95 63.0651 71.8333 63.4151 71.6C63.7651 71.355 63.9401 71.04 63.9401 70.655C63.9401 70.41 63.8584 70.1883 63.6951 69.99C63.5434 69.78 63.2459 69.6283 62.8026 69.535L60.7026 69.0975C59.8509 68.9225 59.2384 68.6308 58.8651 68.2225C58.5034 67.8142 58.3226 67.3067 58.3226 66.7C58.3226 66.2217 58.4567 65.7842 58.7251 65.3875C59.0051 64.9908 59.3959 64.6758 59.8976 64.4425C60.4109 64.1975 61.0117 64.075 61.7001 64.075C62.5634 64.075 63.2926 64.2442 63.8876 64.5825C64.4826 64.9208 64.9259 65.3992 65.2176 66.0175L64.0451 66.7875C63.8467 66.2742 63.5259 65.9008 63.0826 65.6675C62.6392 65.4225 62.1784 65.3 61.7001 65.3C61.2801 65.3 60.9184 65.3583 60.6151 65.475C60.3234 65.5917 60.0959 65.755 59.9326 65.965C59.7809 66.1633 59.7051 66.3908 59.7051 66.6475C59.7051 66.9042 59.7926 67.1433 59.9676 67.365C60.1426 67.575 60.4692 67.7267 60.9476 67.82L63.1351 68.275C63.9517 68.4383 64.5234 68.7067 64.8501 69.08C65.1767 69.4533 65.3401 69.9083 65.3401 70.445C65.3401 70.9933 65.1942 71.4775 64.9026 71.8975C64.6109 72.3058 64.2026 72.6208 63.6776 72.8425C63.1526 73.0642 62.5459 73.175 61.8576 73.175ZM70.0011 61.765V70.585C70.0011 71.0167 70.1236 71.3375 70.3686 71.5475C70.6136 71.7575 70.9286 71.8625 71.3136 71.8625C71.6519 71.8625 71.9436 71.8042 72.1886 71.6875C72.4336 71.5708 72.6553 71.4133 72.8536 71.215L73.3436 72.3875C73.0753 72.6325 72.7544 72.825 72.3811 72.965C72.0194 73.105 71.5994 73.175 71.1211 73.175C70.6778 73.175 70.2636 73.0992 69.8786 72.9475C69.4936 72.7842 69.1844 72.5333 68.9511 72.195C68.7294 71.845 68.6128 71.39 68.6011 70.83V62.15L70.0011 61.765ZM73.1861 64.25V65.4575H66.8511V64.25H73.1861ZM78.8901 64.075C79.7185 64.075 80.4476 64.2558 81.0776 64.6175C81.7193 64.9792 82.221 65.5042 82.5826 66.1925C82.9443 66.8692 83.1251 67.68 83.1251 68.625C83.1251 69.57 82.9443 70.3867 82.5826 71.075C82.221 71.7517 81.7193 72.2708 81.0776 72.6325C80.4476 72.9942 79.7185 73.175 78.8901 73.175C78.0735 73.175 77.3443 72.9942 76.7026 72.6325C76.061 72.2708 75.5593 71.7517 75.1976 71.075C74.836 70.3867 74.6551 69.57 74.6551 68.625C74.6551 67.68 74.836 66.8692 75.1976 66.1925C75.5593 65.5042 76.061 64.9792 76.7026 64.6175C77.3443 64.2558 78.0735 64.075 78.8901 64.075ZM78.8901 65.2825C78.2951 65.2825 77.7876 65.4167 77.3676 65.685C76.9476 65.9533 76.621 66.3383 76.3876 66.84C76.166 67.33 76.0551 67.925 76.0551 68.625C76.0551 69.3133 76.166 69.9083 76.3876 70.41C76.621 70.9117 76.9476 71.2967 77.3676 71.565C77.7876 71.8333 78.2951 71.9675 78.8901 71.9675C79.4851 71.9675 79.9926 71.8333 80.4126 71.565C80.8326 71.2967 81.1535 70.9117 81.3751 70.41C81.6085 69.9083 81.7251 69.3133 81.7251 68.625C81.7251 67.925 81.6085 67.33 81.3751 66.84C81.1535 66.3383 80.8326 65.9533 80.4126 65.685C79.9926 65.4167 79.4851 65.2825 78.8901 65.2825ZM85.7608 73V64.25H86.8983L87.0908 65.685C87.3358 65.1483 87.6916 64.7458 88.1583 64.4775C88.6366 64.2092 89.2141 64.075 89.8908 64.075C90.0425 64.075 90.2058 64.0867 90.3808 64.11C90.5675 64.1333 90.725 64.18 90.8533 64.25L90.6083 65.5275C90.48 65.4808 90.34 65.4458 90.1883 65.4225C90.0366 65.3992 89.8208 65.3875 89.5408 65.3875C89.1791 65.3875 88.8116 65.4925 88.4383 65.7025C88.0766 65.9125 87.7733 66.2333 87.5283 66.665C87.2833 67.085 87.1608 67.6217 87.1608 68.275V73H85.7608ZM96.2884 73.175C95.4601 73.175 94.7193 72.9942 94.0659 72.6325C93.4243 72.2708 92.9226 71.7517 92.5609 71.075C92.1993 70.3867 92.0184 69.57 92.0184 68.625C92.0184 67.68 92.1993 66.8692 92.5609 66.1925C92.9226 65.5042 93.4184 64.9792 94.0484 64.6175C94.6784 64.2558 95.3959 64.075 96.2009 64.075C97.0176 64.075 97.7118 64.25 98.2834 64.6C98.8668 64.95 99.3101 65.4283 99.6134 66.035C99.9168 66.63 100.068 67.3008 100.068 68.0475C100.068 68.2458 100.063 68.4267 100.051 68.59C100.039 68.7533 100.022 68.8992 99.9984 69.0275H92.9284V67.785H99.3859L98.6684 67.925C98.6684 67.085 98.4351 66.4375 97.9684 65.9825C97.5134 65.5275 96.9126 65.3 96.1659 65.3C95.5943 65.3 95.0984 65.4342 94.6784 65.7025C94.2701 65.9592 93.9493 66.3383 93.7159 66.84C93.4943 67.33 93.3834 67.925 93.3834 68.625C93.3834 69.3133 93.5001 69.9083 93.7334 70.41C93.9668 70.9117 94.2934 71.2967 94.7134 71.565C95.1451 71.8217 95.6584 71.95 96.2534 71.95C96.8951 71.95 97.4143 71.8275 97.8109 71.5825C98.2193 71.3375 98.5459 71.005 98.7909 70.585L99.8934 71.2325C99.6718 71.6292 99.3859 71.9733 99.0359 72.265C98.6976 72.5567 98.2951 72.7842 97.8284 72.9475C97.3734 73.0992 96.8601 73.175 96.2884 73.175Z" fill="white"/>
</svg>
