<svg width="752" height="123" viewBox="0 0 752 123" fill="none" xmlns="http://www.w3.org/2000/svg">
<rect x="13" y="12.4521" width="88.4031" height="88.4031" fill="#D9D9D9"/>
<ellipse cx="272" cy="56.5" rx="44" ry="44.5" fill="#D9D9D9"/>
<path d="M164 12L208.167 101.25H119.833L164 12Z" fill="#D9D9D9"/>
<path d="M352.848 80V75.8825L370.533 55.16L374.785 50.7725L368.778 50.9075H353.05V46.25H380.793V50.3675L363.108 71.09L358.922 75.4775L365.47 75.3425H381.333V80H352.848ZM420.967 46.25L406.387 60.83L405.105 62.1125L394.035 73.1825V66.4325L414.15 46.25H420.967ZM396.735 30.725V80H391.335V30.725H396.735ZM406.86 58.0625L421.777 80H415.23L402.337 61.1L406.86 58.0625ZM466.15 80H460.413L455.688 67.6475H435.505L430.78 80H425.11L442.458 35.45H448.87L466.15 80ZM437.463 62.585H453.73L445.563 40.6475L437.463 62.585ZM474.194 94.175V46.25H478.919L479.391 54.485L478.649 53.54C479.234 51.965 480.111 50.5925 481.281 49.4225C482.451 48.2075 483.869 47.2625 485.534 46.5875C487.199 45.9125 488.999 45.575 490.934 45.575C493.679 45.575 496.199 46.2725 498.494 47.6675C500.834 49.0625 502.701 51.065 504.096 53.675C505.491 56.285 506.189 59.435 506.189 63.125C506.189 66.77 505.469 69.92 504.029 72.575C502.634 75.185 500.766 77.1875 498.426 78.5825C496.086 79.9775 493.521 80.675 490.731 80.675C487.941 80.675 485.489 80 483.374 78.65C481.304 77.255 479.819 75.5 478.919 73.385L479.594 72.3725V94.175H474.194ZM490.191 75.95C493.521 75.95 496.109 74.78 497.954 72.44C499.844 70.1 500.789 66.995 500.789 63.125C500.789 59.255 499.866 56.15 498.021 53.81C496.221 51.47 493.679 50.3 490.394 50.3C488.234 50.3 486.344 50.84 484.724 51.92C483.104 52.955 481.844 54.44 480.944 56.375C480.044 58.265 479.594 60.515 479.594 63.125C479.594 65.69 480.021 67.94 480.876 69.875C481.776 71.81 483.014 73.3175 484.589 74.3975C486.209 75.4325 488.076 75.95 490.191 75.95ZM516.513 94.175V46.25H521.238L521.71 54.485L520.968 53.54C521.553 51.965 522.43 50.5925 523.6 49.4225C524.77 48.2075 526.188 47.2625 527.853 46.5875C529.518 45.9125 531.318 45.575 533.253 45.575C535.998 45.575 538.518 46.2725 540.813 47.6675C543.153 49.0625 545.02 51.065 546.415 53.675C547.81 56.285 548.508 59.435 548.508 63.125C548.508 66.77 547.788 69.92 546.348 72.575C544.953 75.185 543.085 77.1875 540.745 78.5825C538.405 79.9775 535.84 80.675 533.05 80.675C530.26 80.675 527.808 80 525.693 78.65C523.623 77.255 522.138 75.5 521.238 73.385L521.913 72.3725V94.175H516.513ZM532.51 75.95C535.84 75.95 538.428 74.78 540.273 72.44C542.163 70.1 543.108 66.995 543.108 63.125C543.108 59.255 542.185 56.15 540.34 53.81C538.54 51.47 535.998 50.3 532.713 50.3C530.553 50.3 528.663 50.84 527.043 51.92C525.423 52.955 524.163 54.44 523.263 56.375C522.363 58.265 521.913 60.515 521.913 63.125C521.913 65.69 522.34 67.94 523.195 69.875C524.095 71.81 525.333 73.3175 526.908 74.3975C528.528 75.4325 530.395 75.95 532.51 75.95ZM560.214 71.9C561.519 71.9 562.576 72.305 563.386 73.115C564.196 73.925 564.601 74.9825 564.601 76.2875C564.601 77.5925 564.196 78.65 563.386 79.46C562.576 80.27 561.519 80.675 560.214 80.675C558.909 80.675 557.851 80.27 557.041 79.46C556.231 78.65 555.826 77.5925 555.826 76.2875C555.826 74.9825 556.231 73.925 557.041 73.115C557.851 72.305 558.909 71.9 560.214 71.9ZM587.594 80.675C584.309 80.675 581.271 79.9775 578.481 78.5825C575.736 77.1875 573.621 75.2075 572.136 72.6425L576.726 69.335C577.716 71.405 579.156 73.025 581.046 74.195C582.981 75.365 585.299 75.95 587.999 75.95C590.384 75.95 592.251 75.5 593.601 74.6C594.951 73.655 595.626 72.44 595.626 70.955C595.626 70.01 595.311 69.155 594.681 68.39C594.096 67.58 592.949 66.995 591.239 66.635L583.139 64.9475C579.854 64.2725 577.491 63.1475 576.051 61.5725C574.656 59.9975 573.959 58.04 573.959 55.7C573.959 53.855 574.476 52.1675 575.511 50.6375C576.591 49.1075 578.099 47.8925 580.034 46.9925C582.014 46.0475 584.331 45.575 586.986 45.575C590.316 45.575 593.129 46.2275 595.424 47.5325C597.719 48.8375 599.429 50.6825 600.554 53.0675L596.031 56.0375C595.266 54.0575 594.029 52.6175 592.319 51.7175C590.609 50.7725 588.831 50.3 586.986 50.3C585.366 50.3 583.971 50.525 582.801 50.975C581.676 51.425 580.799 52.055 580.169 52.865C579.584 53.63 579.291 54.5075 579.291 55.4975C579.291 56.4875 579.629 57.41 580.304 58.265C580.979 59.075 582.239 59.66 584.084 60.02L592.521 61.775C595.671 62.405 597.876 63.44 599.136 64.88C600.396 66.32 601.026 68.075 601.026 70.145C601.026 72.26 600.464 74.1275 599.339 75.7475C598.214 77.3225 596.639 78.5375 594.614 79.3925C592.589 80.2475 590.249 80.675 587.594 80.675ZM619.004 36.665V70.685C619.004 72.35 619.477 73.5875 620.422 74.3975C621.367 75.2075 622.582 75.6125 624.067 75.6125C625.372 75.6125 626.497 75.3875 627.442 74.9375C628.387 74.4875 629.242 73.88 630.007 73.115L631.897 77.6375C630.862 78.5825 629.624 79.325 628.184 79.865C626.789 80.405 625.169 80.675 623.324 80.675C621.614 80.675 620.017 80.3825 618.532 79.7975C617.047 79.1675 615.854 78.2 614.954 76.895C614.099 75.545 613.649 73.79 613.604 71.63V38.15L619.004 36.665ZM631.289 46.25V50.9075H606.854V46.25H631.289ZM653.291 45.575C656.486 45.575 659.298 46.2725 661.728 47.6675C664.203 49.0625 666.138 51.0875 667.533 53.7425C668.928 56.3525 669.626 59.48 669.626 63.125C669.626 66.77 668.928 69.92 667.533 72.575C666.138 75.185 664.203 77.1875 661.728 78.5825C659.298 79.9775 656.486 80.675 653.291 80.675C650.141 80.675 647.328 79.9775 644.853 78.5825C642.378 77.1875 640.443 75.185 639.048 72.575C637.653 69.92 636.956 66.77 636.956 63.125C636.956 59.48 637.653 56.3525 639.048 53.7425C640.443 51.0875 642.378 49.0625 644.853 47.6675C647.328 46.2725 650.141 45.575 653.291 45.575ZM653.291 50.2325C650.996 50.2325 649.038 50.75 647.418 51.785C645.798 52.82 644.538 54.305 643.638 56.24C642.783 58.13 642.356 60.425 642.356 63.125C642.356 65.78 642.783 68.075 643.638 70.01C644.538 71.945 645.798 73.43 647.418 74.465C649.038 75.5 650.996 76.0175 653.291 76.0175C655.586 76.0175 657.543 75.5 659.163 74.465C660.783 73.43 662.021 71.945 662.876 70.01C663.776 68.075 664.226 65.78 664.226 63.125C664.226 60.425 663.776 58.13 662.876 56.24C662.021 54.305 660.783 52.82 659.163 51.785C657.543 50.75 655.586 50.2325 653.291 50.2325ZM679.792 80V46.25H684.179L684.922 51.785C685.867 49.715 687.239 48.1625 689.039 47.1275C690.884 46.0925 693.112 45.575 695.722 45.575C696.307 45.575 696.937 45.62 697.612 45.71C698.332 45.8 698.939 45.98 699.434 46.25L698.489 51.1775C697.994 50.9975 697.454 50.8625 696.869 50.7725C696.284 50.6825 695.452 50.6375 694.372 50.6375C692.977 50.6375 691.559 51.0425 690.119 51.8525C688.724 52.6625 687.554 53.9 686.609 55.565C685.664 57.185 685.192 59.255 685.192 61.775V80H679.792ZM720.398 80.675C717.203 80.675 714.346 79.9775 711.826 78.5825C709.351 77.1875 707.416 75.185 706.021 72.575C704.626 69.92 703.928 66.77 703.928 63.125C703.928 59.48 704.626 56.3525 706.021 53.7425C707.416 51.0875 709.328 49.0625 711.758 47.6675C714.188 46.2725 716.956 45.575 720.061 45.575C723.211 45.575 725.888 46.25 728.093 47.6C730.343 48.95 732.053 50.795 733.223 53.135C734.393 55.43 734.978 58.0175 734.978 60.8975C734.978 61.6625 734.956 62.36 734.911 62.99C734.866 63.62 734.798 64.1825 734.708 64.6775H707.438V59.885H732.346L729.578 60.425C729.578 57.185 728.678 54.6875 726.878 52.9325C725.123 51.1775 722.806 50.3 719.926 50.3C717.721 50.3 715.808 50.8175 714.188 51.8525C712.613 52.8425 711.376 54.305 710.476 56.24C709.621 58.13 709.193 60.425 709.193 63.125C709.193 65.78 709.643 68.075 710.543 70.01C711.443 71.945 712.703 73.43 714.323 74.465C715.988 75.455 717.968 75.95 720.263 75.95C722.738 75.95 724.741 75.4775 726.271 74.5325C727.846 73.5875 729.106 72.305 730.051 70.685L734.303 73.1825C733.448 74.7125 732.346 76.04 730.996 77.165C729.691 78.29 728.138 79.1675 726.338 79.7975C724.583 80.3825 722.603 80.675 720.398 80.675Z" fill="white"/>
</svg>
